Coordinates
version=1
nRows=17
nColumns=40
inDegrees=yes

Units are S.I. units (second, meters, Newtons, ...)
Angles are in degrees.

endheader
time	pelvis_tilt	pelvis_list	pelvis_rotation	pelvis_tx	pelvis_ty	pelvis_tz	hip_flexion_r	hip_adduction_r	hip_rotation_r	knee_angle_r	knee_angle_r_beta	ankle_angle_r	subtalar_angle_r	mtp_angle_r	hip_flexion_l	hip_adduction_l	hip_rotation_l	knee_angle_l	knee_angle_l_beta	ankle_angle_l	subtalar_angle_l	mtp_angle_l	lumbar_extension	lumbar_bending	lumbar_rotation	arm_flex_r	arm_add_r	arm_rot_r	elbow_flex_r	pro_sup_r	wrist_flex_r	wrist_dev_r	arm_flex_l	arm_add_l	arm_rot_l	elbow_flex_l	pro_sup_l	wrist_flex_l	wrist_dev_l
     47.04000000	     -6.13453705	     -3.94087705	     -3.46904926	      1.02294524	      0.93143403	      0.45654785	     35.19163240	     -5.71115900	     -4.59318070	     71.42025415	     71.42025415	     -5.11038726	    -13.66225847	     -2.15217131	     14.49478965	     -3.51433713	     -4.96437558	     21.06296726	     21.06296726	     15.04403352	    -10.72306889	      3.54422495	    -12.62385508	      7.32945243	      2.64427593	     -5.26816068	    -18.02627441	     -5.58130530	     35.22796858	     44.16615529	      0.00000000	      0.00000000	     -4.06229568	    -15.27374548	     -3.59626683	     89.57290205	     45.75877350	      0.00000000	      0.00000000
     47.05192857	     -6.11673855	     -4.06407537	     -3.64973486	      1.02180655	      0.93204536	      0.45700746	     36.24235339	     -5.47566104	     -4.86646545	     70.15530854	     70.15530854	     -4.77169929	    -13.59567784	     -2.24110120	     13.66711095	     -3.66694827	     -5.20728226	     20.46484868	     20.46484868	     15.22899299	    -10.43244930	      3.54895598	    -12.75633091	      7.39780544	      2.71386992	     -5.63478098	    -17.74906864	     -5.50576346	     34.96255171	     44.19227869	      0.00000000	      0.00000000	     -3.09842679	    -15.32361526	     -3.59713765	     90.95873057	     45.81732047	      0.00000000	      0.00000000
     47.06385714	     -6.11029384	     -4.15502614	     -3.82260769	      1.02067799	      0.93254718	      0.45738284	     37.19396040	     -5.29858888	     -5.16015667	     68.70941772	     68.70941772	     -4.48646549	    -13.42071518	     -2.34192704	     12.89844053	     -3.78339628	     -5.48414471	     19.94211043	     19.94211043	     15.41898477	    -10.09835289	      3.44554082	    -12.91191070	      7.41855902	      2.70416160	     -5.91980479	    -17.45195446	     -5.44432500	     34.74911116	     44.22687323	      0.00000000	      0.00000000	     -2.27912591	    -15.51990273	     -3.48046798	     92.72025351	     45.88842204	      0.00000000	      0.00000000
     47.07578571	     -6.16410078	     -4.23541933	     -3.93337683	      1.01957045	      0.93299707	      0.45757533	     38.04712327	     -5.16044719	     -5.49187032	     66.98255212	     66.98255212	     -4.18843955	    -13.12059230	     -2.27390151	     12.20823220	     -3.85405586	     -5.62155994	     19.40557782	     19.40557782	     15.56519635	     -9.85867024	      3.44066932	    -12.96277089	      7.51673403	      2.52288950	     -6.12367458	    -17.15941903	     -5.37098419	     34.65439167	     44.23787503	      0.00000000	      0.00000000	     -1.34800014	    -15.65107145	     -3.54156663	     93.77552818	     45.93237675	      0.00000000	      0.00000000
     47.08771429	     -5.96169325	     -4.12089695	     -4.19504843	      1.01888255	      0.93372801	      0.45773467	     38.50227334	     -5.16383837	     -5.59435369	     64.99186295	     64.99186295	     -3.80132786	    -12.59734613	     -2.20651269	     11.07528534	     -3.67694340	     -5.99849368	     18.62165415	     18.62165415	     15.67755462	     -9.68769156	      3.45698704	    -13.25302122	      7.29528721	      2.58163357	     -6.34435027	    -16.89653422	     -5.28924853	     34.49619092	     44.27500206	      0.00000000	      0.00000000	     -0.64607997	    -15.80983288	     -3.35745189	     95.94312014	     46.01792589	      0.00000000	      0.00000000
     47.09964286	     -5.91292503	     -4.10963544	     -4.26435110	      1.01813708	      0.93429560	      0.45762267	     38.87985325	     -5.16165363	     -5.89466642	     62.57146096	     62.57146096	     -3.45606496	    -11.95480946	     -2.07900781	     10.20422458	     -3.57503667	     -6.00961749	     17.94579571	     17.94579571	     15.77578043	     -9.50682485	      3.55257611	    -13.38553442	      7.32002271	      2.34950424	     -6.48908851	    -16.70555105	     -5.22305511	     34.43838913	     44.28677166	      0.00000000	      0.00000000	      0.23569903	    -15.84477485	     -3.39762524	     96.93725007	     46.06483290	      0.00000000	      0.00000000
     47.11157143	     -5.72313709	     -3.94800041	     -4.40458968	      1.01763355	      0.93500033	      0.45736763	     38.95000364	     -5.31170124	     -6.08522824	     59.81117885	     59.81117885	     -2.99182238	    -11.00167056	     -2.03071891	      9.05858613	     -3.25997859	     -6.09584687	     17.05834651	     17.05834651	     15.82815705	     -9.40225509	      3.78463250	    -13.66176484	      7.16770375	      2.27319077	     -6.60400841	    -16.51668399	     -5.14146091	     34.42182256	     44.29837825	      0.00000000	      0.00000000	      1.12059774	    -15.82735321	     -3.36956895	     98.22018328	     46.11603358	      0.00000000	      0.00000000
     47.12350000	     -5.56467138	     -3.72949962	     -4.51624607	      1.01721372	      0.93556790	      0.45705771	     38.85176279	     -5.52646266	     -6.28490740	     56.63383012	     56.63383012	     -2.49840785	     -9.86856255	     -2.03189402	      7.97970911	     -2.87031829	     -6.14802579	     16.21237683	     16.21237683	     15.88189919	     -9.41829101	      4.06882283	    -13.84591955	      6.97839737	      2.12560203	     -6.64197399	    -16.32940603	     -5.06271744	     34.49981915	     44.30584255	      0.00000000	      0.00000000	      1.98954841	    -15.83702729	     -3.30222669	     99.42388208	     46.16219121	      0.00000000	      0.00000000
     47.13542857	     -5.37220450	     -3.40823508	     -4.62720811	      1.01689482	      0.93605610	      0.45674334	     38.52806805	     -5.86059985	     -6.50426872	     53.08014300	     53.08014300	     -1.94660139	     -8.37773794	     -2.38052086	      6.75768585	     -2.30612431	     -5.97176030	     15.14848159	     15.14848159	     15.89182687	     -9.64077786	      4.64340515	    -14.13589399	      6.64100460	      2.01445985	     -6.65005011	    -16.14432155	     -4.93589093	     34.77407723	     44.31835357	      0.00000000	      0.00000000	      2.77523385	    -15.91534908	     -3.12116085	    100.97053350	     46.23178772	      0.00000000	      0.00000000
     47.14735714	     -5.27184580	     -3.23967671	     -4.64950377	      1.01656008	      0.93625556	      0.45655864	     38.01073120	     -6.01278715	     -6.90209642	     49.05253070	     49.05253070	     -1.38343918	     -6.88223400	     -2.57112233	      5.81217731	     -1.98142629	     -5.87289984	     14.43290928	     14.43290928	     16.01347246	     -9.66298674	      4.98629169	    -14.23888059	      6.54775420	      1.85434527	     -6.57119920	    -15.99003864	     -4.81980140	     35.04774700	     44.32200373	      0.00000000	      0.00000000	      3.62914788	    -15.91532370	     -3.01458441	    102.01709130	     46.28216509	      0.00000000	      0.00000000
     47.15928571	     -5.21280263	     -3.09198498	     -4.65366749	      1.01617509	      0.93618364	      0.45671977	     37.30988742	     -6.10139526	     -7.41577896	     44.66296050	     44.66296050	     -0.84576642	     -5.15021453	     -2.77808014	      4.93334526	     -1.71620203	     -5.76456188	     13.76066601	     13.76066601	     16.18622100	     -9.61571362	      5.30540414	    -14.36577775	      6.40436388	      1.71092821	     -6.50431110	    -15.83914846	     -4.68172679	     35.40701154	     44.32123822	      0.00000000	      0.00000000	      4.48606231	    -15.93458659	     -2.84028962	    103.11977226	     46.33045211	      0.00000000	      0.00000000
     47.17121429	     -5.22671878	     -2.97499386	     -4.62249640	      1.01574845	      0.93572948	      0.45724632	     36.45195216	     -6.10033565	     -8.07858715	     39.95672641	     39.95672641	     -0.40515737	     -3.25810761	     -2.99302122	      4.20741252	     -1.54083832	     -5.73454764	     13.23277551	     13.23277551	     16.43716320	     -9.47720624	      5.53904127	    -14.36555628	      6.28139679	      1.59633270	     -6.42471582	    -15.64447406	     -4.47428505	     35.96931668	     44.31520555	      0.00000000	      0.00000000	      5.36157251	    -16.05023834	     -2.58300946	    104.30437440	     46.38676652	      0.00000000	      0.00000000
     47.18314286	     -5.36807165	     -3.02213190	     -4.50877404	      1.01520751	      0.93482360	      0.45826413	     35.48843228	     -5.78945043	     -8.77241040	     35.01833560	     35.01833560	     -0.00017031	     -1.59775788	     -2.61071680	      3.77437377	     -1.63614508	     -5.69687086	     13.01334106	     13.01334106	     16.74902698	     -9.22749811	      5.40995543	    -14.23066192	      6.34255682	      1.47270793	     -6.26171792	    -15.44216672	     -4.31006178	     36.43148371	     44.30555790	      0.00000000	      0.00000000	      6.21385252	    -16.15651768	     -2.38530846	    105.20216145	     46.42404818	      0.00000000	      0.00000000
     47.19507143	     -5.52118511	     -3.08232552	     -4.38942950	      1.01473396	      0.93352106	      0.45975639	     34.39170206	     -5.39700398	     -9.58404897	     30.07189399	     30.07189399	      0.31863811	      0.21387179	     -1.87598858	      3.40481060	     -1.80983877	     -5.85256482	     12.91545349	     12.91545349	     17.12804971	     -8.81999545	      5.02067848	    -13.99978385	      6.38033246	      1.38154369	     -6.10170753	    -15.18305516	     -4.10885301	     36.99300205	     44.29018520	      0.00000000	      0.00000000	      7.09433992	    -16.33669076	     -2.12339288	    106.19033942	     46.46002097	      0.00000000	      0.00000000
     47.20700000	     -5.68595834	     -3.27146646	     -4.19726557	      1.01436435	      0.93189770	      0.46170945	     33.18350123	     -4.80729359	    -10.48052071	     25.29534687	     25.29534687	      0.65085731	      1.99167899	     -0.68779164	      3.12341673	     -2.19991340	     -6.01391196	     12.99433564	     12.99433564	     17.55979480	     -8.18344705	      4.32054705	    -13.80645924	      6.51687070	      1.33242537	     -5.95799362	    -14.98152921	     -3.88805433	     37.63317825	     44.27110795	      0.00000000	      0.00000000	      7.87415133	    -16.56069577	     -1.78988036	    107.17164830	     46.49152653	      0.00000000	      0.00000000
     47.21892857	     -5.89816143	     -3.46451285	     -4.00270617	      1.01411058	      0.92990705	      0.46402461	     32.07594247	     -4.15006059	    -11.35811674	     21.01036733	     21.01036733	      0.88352883	      3.54033125	      0.92289229	      2.94488267	     -2.65268200	     -6.32008746	     13.19307380	     13.19307380	     18.03122404	     -7.47727922	      3.40168185	    -13.48372477	      6.62675231	      1.30043467	     -5.79114153	    -14.73319769	     -3.64597306	     38.32175388	     44.24807116	      0.00000000	      0.00000000	      8.64475428	    -16.82993871	     -1.46425002	    108.08610600	     46.52026479	      0.00000000	      0.00000000
     47.23085714	     -6.13011819	     -3.76203047	     -3.87190131	      1.01394605	      0.92762192	      0.46674939	     31.35467794	     -3.42852028	    -12.30406510	     18.00035094	     18.00035094	      2.66410322	      5.27708482	      7.08396935	      2.90359464	     -3.41814538	     -7.54387981	     13.65896963	     13.65896963	     18.23638707	     -5.57403904	      0.48728401	    -13.15617117	      6.84376522	      1.61218107	     -6.34305327	    -14.88960691	     -2.28322804	     40.89819347	     44.19944893	      0.00000000	      0.00000000	      9.53417153	    -17.21635394	     -0.62794400	    109.00803844	     46.69458457	      0.00000000	      0.00000000
